<svg xmlns="http://www.w3.org/2000/svg" xmlns:xlink="http://www.w3.org/1999/xlink" xml:space="preserve" style="fill-rule:evenodd;clip-rule:evenodd;stroke-linejoin:round;stroke-miterlimit:2" viewBox="0 0 554 650">
  <path d="M1046 1583c29 1 69 9 91 20 3-4 35-37 70-37 37 0 57 11 75 38 9 14 29 66-18 106 18 37 53 129 24 210-7 25-15 36-28 19q-9 18-24 38c-9 14-31 37-33 72-3 35-2 68 22 112 16 29 21 30-12 34-22 3-109 16-198-31-1 11-3 32-33 15-31-17-58-31-83-60-2 6-4 16-11 17s-78-36-110-153c-4 6-10 18-16 15s-50-107 40-270c-32-25-75-93-11-152 68-57 139-9 158 20 22-9 68-14 97-13" style="fill:#1d1200" transform="translate(-746 -1550)"/>
  <path d="M1271 1908c-7-12-17-26-18-25 0 23-14 58-38 88q-34 45-35 87c0 27 2 76 34 121-43 3-131 17-230-61-3-2 7 43 3 40-9-4-57-31-102-85q-4 5-7 33c-42-39-70-61-87-170l-22 21c-5-97 5-139 64-236-36-17-85-79-19-137 37-32 104-19 123 39 66-27 131-26 209 3 16-28 52-56 97-27 24 15 48 62-9 105 25 37 59 117 37 204" style="fill:url(#a)" transform="translate(-746 -1550)"/>
  <path d="M1164 1769s42-9 49-2 26 24 31 49c4 24 10 45 9 67 0 23-14 58-38 88q-34 45-35 87c0 27 2 76 34 121-16-5-172-65-246-118-74-54-88-73-108-105-19-31-32-72-27-97 7 21 22 54 44 73q-2-18 0-36c2 5 9 47 57 82-4-17-14-40-14-54 9 10 51 62 139 64q131 3 133-108c3-74-28-111-28-111m-206-11s30-51 89-49 56 49 27 61c-3-11 0-10-15-9l-73-4z" style="fill:#5a2a02" transform="translate(-746 -1550)"/>
  <path d="M1155 1758s-11-40 25-44c37-4 52 39 56 54-5-6-8-13-20-8-11 4-54 3-54 3z" style="fill:#5a2a02" transform="translate(-746 -1550)"/>
  <path d="m1215 1758 6-1s-8-10-20-14-22 0-27 4-11 15-7 19 11 10 26 9c14 0 19-6 20-10z" style="fill:#1d1200" transform="translate(-746 -1550)"/>
  <path d="M1122 1737c29 0 101 72 101 130 0 49-33 98-97 98s-104-34-106-84c-1-62 66-144 102-144" style="fill:#fef8de" transform="translate(-746 -1550)"/>
  <path d="m861 1692 53-36c1-2 1-19-2-23-4-4-14-17-25-21q-19-6-29 0-10 3-21 18c-7 10 24 62 24 62" style="fill:#6b2f05" transform="translate(-746 -1550)"/>
  <path d="M909 1661s-16-41-46-43c-26-2-33 9-36 25s11 40 32 50z" style="fill:#fdf7e1" transform="translate(-746 -1550)"/>
  <path d="M1161 1806c28 0 45 9 49 17 3 9 3 25-10 39-13 15-25 20-28 23l-2 13s35 15 23 31c-4-2-17-16-35-16-22-1-50 16-60 17q-16 1-9-3c5-3 25-16 65-30l3-14s-21-12-29-20c-8-9-27-29-6-46q12-11 39-11m-178-51c14 5 28 20 48 20 22 0 28-7 40-15-8-10-15-21-39-21-22-1-34 8-49 16" style="fill:#1d1200" transform="translate(-746 -1550)"/>
  <path d="M1178 1644s-2-12 2-15c6-6 24-17 37-16 28 1 37 13 41 21s6 40-32 60c-9-10-14-24-48-50" style="fill:#6b2f05" transform="matrix(.756 0 0 .814 -454 -1239)"/>
  <path d="M1170 1633s18-27 46-26c28 2 43 15 51 26 7 12 8 54-31 74-8-9-32-43-66-74" style="fill:#fef8de" transform="matrix(.598 0 0 .626 -259 -921)"/>
  <defs>
    <linearGradient id="a" x1="0" x2="1" y1="0" y2="0" gradientTransform="rotate(56 -1329 1724)scale(275.285 330.043)" gradientUnits="userSpaceOnUse">
      <stop offset="0" style="stop-color:#aa510d;stop-opacity:1"/>
      <stop offset=".5" style="stop-color:#98480b;stop-opacity:1"/>
      <stop offset="1" style="stop-color:#5a2a02;stop-opacity:1"/>
    </linearGradient>
  </defs>
</svg>
