<?xml version="1.0" encoding="UTF-8" standalone="no"?>
<!DOCTYPE svg PUBLIC "-//W3C//DTD SVG 1.1//EN" "http://www.w3.org/Graphics/SVG/1.1/DTD/svg11.dtd">
<svg width="100%" height="100%" viewBox="0 0 522 179" version="1.1" xmlns="http://www.w3.org/2000/svg" xmlns:xlink="http://www.w3.org/1999/xlink" xml:space="preserve" xmlns:serif="http://www.serif.com/" style="fill-rule:evenodd;clip-rule:evenodd;stroke-linejoin:round;stroke-miterlimit:2;">
    <g id="Artboard1" transform="matrix(1,0,0,1,-111.017,-49.7361)">
        <rect x="111.017" y="49.736" width="521.512" height="178.932" fill="none"/>
        <g id="path3745" transform="matrix(0.76247,0,0,0.76247,0.0171952,0.736066)">
            <path d="M199,69L199,254.312L304,254.312L304,166L332,166C341,166 351,170 351,186L351,296.036L151,296.036L151,86.77C151,77.77 160.227,68.966 170.465,68.966C171.436,68.966 199,69 199,69Z"/>
        </g>
        <g id="path3747" transform="matrix(0.76247,0,0,0.76247,0.0171952,0.736066)">
            <path d="M304,152L303.903,123.091L331.903,123.091C340.903,123.091 351,124 351,139L351,152L304,152Z"/>
        </g>
        <g id="path3749" transform="matrix(0.76247,0,0,0.76247,0.0171952,0.736066)">
            <path d="M363,271C363,288 370,295.972 387,295.972L476,295.972L476,189.887C476,174.887 483.528,164 504,164L527,164L527,236C527,236 526,297 602,297C679,297 674,239 674,239L674,170L719,295.972L765,295.972L827,123L787,123C786,123 775,123 771,139C766,155 742,243 742,243L707,123L650,123C634,123 631,134 631,142L631,237C631,242 623,262 601,262C578,262 571,245 571,237L571,123L504.486,123C464.104,123 437,146.085 437,189L437,262L415,262C409,262 405,257 405,253L405,152C422,152 433,150 433,132L433,123L405,123L405,88C405,76 396,71 388,71L363,71L363,271Z"/>
        </g>
        <g id="path3751" transform="matrix(0.76247,0,0,0.76247,0.0171952,0.736066)">
            <path d="M825,296L825,259L804,259C797,259 789,262 789,275L789,296L825,296Z"/>
        </g>
    </g>
</svg>
