<?xml version="1.0" encoding="UTF-8" standalone="no"?>
<!DOCTYPE svg PUBLIC "-//W3C//DTD SVG 1.1//EN" "http://www.w3.org/Graphics/SVG/1.1/DTD/svg11.dtd">
<svg width="100%" height="100%" viewBox="0 0 512 453" version="1.1" xmlns="http://www.w3.org/2000/svg" xmlns:xlink="http://www.w3.org/1999/xlink" xml:space="preserve" xmlns:serif="http://www.serif.com/" style="fill-rule:evenodd;clip-rule:evenodd;stroke-linejoin:round;stroke-miterlimit:2;">
    <path d="M110.985,30.441C169.68,74.658 232.822,164.297 255.998,212.402C279.175,164.297 342.321,74.658 401.015,30.441C443.376,-1.455 512,-26.142 512,52.402C512,68.082 503.038,184.177 497.777,203.03C479.504,268.545 412.904,285.258 353.665,275.146C457.215,292.825 483.554,351.383 426.665,409.945C318.624,521.168 271.377,382.04 259.279,346.391C255.791,336.129 256.288,335.893 252.719,346.391C240.621,382.04 193.377,521.168 85.336,409.945C28.447,351.383 54.785,292.825 158.335,275.146C99.096,285.258 32.495,268.545 14.223,203.03C8.962,184.177 0,68.082 0,52.402C0,-26.142 68.633,-1.455 110.985,30.441ZM96.799,49.275C84.105,39.715 68.726,30.778 54.004,26.256C44.996,23.49 36.38,21.013 30.395,25.642C24.778,29.987 23.579,38.884 23.579,52.402C23.579,67.42 31.895,178.636 36.934,196.692L36.935,196.696C51.648,249.45 106.666,260.046 154.367,251.903C167.204,249.712 179.386,258.342 181.578,271.178C183.769,284.015 175.14,296.197 162.303,298.389C135.291,303 114.19,310.441 99.405,320.491C88.594,327.839 81.552,336.27 79.887,346.191C77.4,361.01 86.042,376.833 102.249,393.516C127.513,419.524 147.307,430.205 164.581,428.535C178.755,427.164 189.413,417.046 198.267,405.504C215.828,382.612 225.787,352.38 230.391,338.814L230.395,338.801C232.485,332.655 234.064,328.904 235.05,327.229L238.226,322.916L243.134,318.787L249.091,316.051L256.946,315.045L263.15,316.115L269.971,319.512L274.366,323.551L277.231,327.669C278.172,329.34 279.629,332.994 281.604,338.803L281.607,338.814C286.211,352.38 296.171,382.612 313.732,405.504C322.586,417.046 333.245,427.164 347.419,428.535C364.693,430.205 384.488,419.524 409.752,393.516C425.959,376.833 434.601,361.01 432.114,346.191C430.449,336.27 423.406,327.84 412.596,320.491C397.81,310.441 376.709,303 349.697,298.389C336.86,296.197 328.231,284.015 330.422,271.178C332.614,258.342 344.796,249.712 357.633,251.903C405.334,260.046 460.351,249.45 475.065,196.695L475.066,196.692C480.105,178.636 488.421,67.42 488.421,52.402C488.421,38.884 487.222,29.987 481.606,25.642C475.622,21.012 467.007,23.49 458,26.256C443.277,30.778 427.897,39.716 415.2,49.276C359.312,91.38 299.309,176.831 277.24,222.636C273.309,230.795 265.054,235.981 255.998,235.981C246.942,235.981 238.686,230.794 234.756,222.636C212.688,176.831 152.688,91.379 96.799,49.275Z"/>
</svg>
